<svg width="375" height="197" viewBox="0 0 375 197" fill="none" xmlns="http://www.w3.org/2000/svg">
<path d="M374 195.527C374 195.527 298.5 170.027 183 169.027C67.5 168.027 1 195.527 1 195.527" stroke="white" stroke-width="3"/>
<mask id="path-2-inside-1" fill="white">
<path fill-rule="evenodd" clip-rule="evenodd" d="M316 131C316 148.611 312.419 165.41 305.924 180.75C274.004 175.308 232.119 170.452 183 170.027C129.81 169.566 87.0111 175.15 56.3138 181.309C49.6689 165.819 46 148.825 46 131C46 58.6507 106.442 0 181 0C255.558 0 316 58.6507 316 131ZM77.5 176L108 94C115.167 93 124.441 90 143.5 81C157.885 74.2071 168.666 65.7437 176.122 59.8912C177.736 58.6239 179.195 57.479 180.5 56.5C184.667 60.8333 196.5 71 210.5 77C224.5 83 243.333 88.5 251 90.5L286 177C269.167 173.5 223 169 176.5 169C145.945 169 108.381 172.854 87.5696 174.99C83.5207 175.405 80.1058 175.756 77.5 176Z"/>
</mask>
<path fill-rule="evenodd" clip-rule="evenodd" d="M316 131C316 148.611 312.419 165.41 305.924 180.75C274.004 175.308 232.119 170.452 183 170.027C129.81 169.566 87.0111 175.15 56.3138 181.309C49.6689 165.819 46 148.825 46 131C46 58.6507 106.442 0 181 0C255.558 0 316 58.6507 316 131ZM77.5 176L108 94C115.167 93 124.441 90 143.5 81C157.885 74.2071 168.666 65.7437 176.122 59.8912C177.736 58.6239 179.195 57.479 180.5 56.5C184.667 60.8333 196.5 71 210.5 77C224.5 83 243.333 88.5 251 90.5L286 177C269.167 173.5 223 169 176.5 169C145.945 169 108.381 172.854 87.5696 174.99C83.5207 175.405 80.1058 175.756 77.5 176Z" fill="white" fill-opacity="0.16"/>
<path d="M305.924 180.75L305.42 183.707L307.761 184.106L308.687 181.919L305.924 180.75ZM183 170.027L183.026 167.027L183 170.027ZM56.3138 181.309L53.5568 182.491L54.5167 184.729L56.904 184.25L56.3138 181.309ZM108 94L107.585 91.0288L105.812 91.2762L105.188 92.9541L108 94ZM77.5 176L74.6882 174.954L73.0223 179.433L77.78 178.987L77.5 176ZM143.5 81L144.781 83.7127L144.781 83.7127L143.5 81ZM176.122 59.8912L177.974 62.251L177.974 62.251L176.122 59.8912ZM180.5 56.5L182.663 54.4207L180.823 52.5077L178.7 54.1L180.5 56.5ZM251 90.5L253.781 89.3748L253.216 87.9776L251.757 87.5971L251 90.5ZM286 177L285.389 179.937L290.887 181.08L288.781 175.875L286 177ZM87.5696 174.99L87.8758 177.974L87.8758 177.974L87.5696 174.99ZM308.687 181.919C315.335 166.218 319 149.022 319 131H313C313 148.2 309.503 164.603 303.162 179.58L308.687 181.919ZM182.974 173.027C231.912 173.45 273.636 178.289 305.42 183.707L306.428 177.793C274.373 172.328 232.327 167.454 183.026 167.027L182.974 173.027ZM56.904 184.25C87.4166 178.128 130.008 172.568 182.974 173.027L183.026 167.027C129.611 166.564 86.6056 172.171 55.7237 178.367L56.904 184.25ZM43 131C43 149.241 46.7551 166.636 53.5568 182.491L59.0709 180.126C52.5826 165.001 49 148.409 49 131H43ZM181 -3C104.87 -3 43 56.9094 43 131H49C49 60.392 108.013 3 181 3V-3ZM319 131C319 56.9094 257.13 -3 181 -3V3C253.987 3 313 60.392 313 131H319ZM105.188 92.9541L74.6882 174.954L80.3118 177.046L110.812 95.0459L105.188 92.9541ZM142.219 78.2873C123.205 87.266 114.276 90.0953 107.585 91.0288L108.415 96.9712C116.058 95.9047 125.677 92.734 144.781 83.7127L142.219 78.2873ZM174.269 57.5315C166.821 63.3785 156.27 71.6518 142.219 78.2873L144.781 83.7127C159.5 76.7623 170.512 68.1089 177.974 62.251L174.269 57.5315ZM178.7 54.1C177.363 55.1029 175.876 56.27 174.269 57.5315L177.974 62.251C179.596 60.9778 181.026 59.8551 182.3 58.9L178.7 54.1ZM211.682 74.2426C198.147 68.4421 186.634 58.5514 182.663 54.4207L178.337 58.5793C182.699 63.1152 194.853 73.5579 209.318 79.7574L211.682 74.2426ZM251.757 87.5971C244.147 85.6118 225.48 80.156 211.682 74.2426L209.318 79.7574C223.52 85.844 242.52 91.3882 250.243 93.4029L251.757 87.5971ZM288.781 175.875L253.781 89.3748L248.219 91.6252L283.219 178.125L288.781 175.875ZM176.5 172C222.895 172 268.835 176.495 285.389 179.937L286.611 174.063C269.498 170.505 223.105 166 176.5 166V172ZM87.8758 177.974C108.719 175.835 146.126 172 176.5 172V166C145.764 166 108.044 169.873 87.2634 172.006L87.8758 177.974ZM77.78 178.987C80.402 178.741 83.8322 178.389 87.8758 177.974L87.2634 172.006C83.2092 172.422 79.8096 172.77 77.22 173.013L77.78 178.987Z" fill="white" mask="url(#path-2-inside-1)"/>
<path d="M170.216 140.77C174.563 130.456 178.057 119.03 180.756 107.529C186.998 130.647 198.565 155.192 205.405 168.298C204.141 168.212 202.461 168.107 200.413 168.002C195.504 167.751 188.478 167.5 180 167.5C171.522 167.5 163.999 167.751 158.594 168.002C156.71 168.089 155.084 168.176 153.764 168.253C160.255 161.036 165.709 151.465 170.216 140.77Z" fill="white" fill-opacity="0.2" stroke="white" stroke-width="3"/>
</svg>
